<?xml version="1.0" encoding="utf-8"?>
<!-- Generator: Adobe Illustrator 26.2.1, SVG Export Plug-In . SVG Version: 6.00 Build 0)  -->
<svg version="1.1" id="Capa_1" xmlns="http://www.w3.org/2000/svg" xmlns:xlink="http://www.w3.org/1999/xlink" x="0px" y="0px"
	 viewBox="0 0 50 49.53" style="enable-background:new 0 0 50 49.53;" xml:space="preserve">
<style type="text/css">
	.st0{fill:none;stroke:#0AAFF1;stroke-width:15;stroke-miterlimit:10;}
	.st1{fill:#0AAFF1;}
	.st2{fill:#FFFFFF;}
	.st3{fill:#FFFFFF;stroke:#E0E5EE;stroke-miterlimit:10;}
	.st4{fill:#606060;}
	.st5{fill:none;stroke:#0084F6;stroke-width:11;stroke-miterlimit:10;}
	.st6{fill:#00B346;}
	.st7{fill:#00A3C8;}
	.st8{fill:none;stroke:#00A3C8;stroke-miterlimit:10;}
	.st9{fill:none;stroke:#FFFFFF;stroke-width:4;stroke-miterlimit:10;}
	.st10{fill:#606060;stroke:#606060;stroke-width:5;stroke-miterlimit:10;}
	.st11{fill:none;stroke:#FFFFFF;stroke-width:10;stroke-miterlimit:10;}
	.st12{fill:#606060;stroke:#FFFFFF;stroke-width:10;stroke-miterlimit:10;}
	.st13{fill:#E70027;}
	.st14{fill:#FFFFFC;}
	.st15{fill:#FFFFFF;stroke:#606060;stroke-width:10;stroke-miterlimit:10;}
	.st16{fill:none;stroke:#000000;stroke-width:10;stroke-miterlimit:10;}
	.st17{fill:#F2F5FA;}
	.st18{fill:#FF8A5C;}
	.st19{fill:#F8F8F8;stroke:#E0E5EE;stroke-miterlimit:10;}
	.st20{fill:none;stroke:#C6C6C6;stroke-miterlimit:10;}
	.st21{fill:#FF5470;}
	.st22{fill:none;stroke:#FFFFFF;stroke-width:7;stroke-miterlimit:10;}
	.st23{fill:#FF7523;}
	.st24{fill:none;stroke:#FFFFFF;stroke-miterlimit:10;}
	.st25{fill:none;stroke:#0AAFF1;stroke-linecap:round;stroke-linejoin:round;stroke-miterlimit:10;}
	.st26{fill:#0AAFF1;stroke:#FFFFFF;stroke-linecap:round;stroke-linejoin:round;stroke-miterlimit:10;}
	.st27{opacity:0.25;fill:#1E93D1;}
	.st28{fill:#1E93D1;}
	.st29{fill:#1C5392;}
	.st30{fill:none;stroke:#FFFFFF;stroke-linecap:round;stroke-linejoin:round;stroke-miterlimit:10;}
	.st31{fill:none;stroke:#0AAFF1;stroke-width:2;stroke-linecap:round;stroke-linejoin:round;stroke-miterlimit:10;}
	.st32{fill:none;stroke:#0AAFF1;stroke-width:4;stroke-linecap:round;stroke-linejoin:round;stroke-miterlimit:10;}
	.st33{fill:none;stroke:#FFFFFF;stroke-width:5;stroke-miterlimit:10;}
	.st34{fill:none;stroke:#FFFFFF;stroke-width:5;stroke-linecap:round;stroke-linejoin:round;stroke-miterlimit:10;}
	.st35{fill:none;stroke:#0AAFF1;stroke-width:24;stroke-miterlimit:10;}
	.st36{fill:none;stroke:#F2F5FA;stroke-width:10;stroke-miterlimit:10;}
	.st37{fill:#B8D637;}
	.st38{fill:#1D1D1B;}
	.st39{fill:#88898B;}
	.st40{fill:#9F9FA1;}
	.st41{fill:#D2D2D3;}
	.st42{fill:#F7F7F7;}
	.st43{fill:none;stroke:#FFFFFF;stroke-width:4;stroke-linecap:round;stroke-linejoin:round;stroke-miterlimit:10;}
	.st44{fill:#0AAFF1;stroke:#FFFFFF;stroke-width:1.5;stroke-linecap:round;stroke-linejoin:round;stroke-miterlimit:10;}
	.st45{fill:#FFFFFF;stroke:#0AAFF1;stroke-width:1.5;stroke-linecap:round;stroke-linejoin:round;stroke-miterlimit:10;}
	.st46{fill:#FFFFFF;stroke:#0AAFF1;stroke-width:3;stroke-linecap:round;stroke-linejoin:round;stroke-miterlimit:10;}
	.st47{fill:none;stroke:#0AAFF1;stroke-width:3;stroke-linecap:round;stroke-linejoin:round;stroke-miterlimit:10;}
	.st48{fill:none;}
	.st49{fill:#FFFFFF;stroke:#0AAFF1;stroke-width:1.5;stroke-miterlimit:10;}
	.st50{fill:#0AAFF1;stroke:#FFFFFF;stroke-width:1.5;stroke-miterlimit:10;}
	.st51{fill:none;stroke:#0AAFF1;stroke-width:2;stroke-miterlimit:10;}
	.st52{fill:#FFFFFF;stroke:#0AAFF1;stroke-width:2;stroke-miterlimit:10;}
	.st53{fill:#0AAFF1;stroke:#FFFFFF;stroke-miterlimit:10;}
	.st54{fill:none;stroke:#0AAFF1;stroke-miterlimit:10;}
	.st55{fill:#FFFFFF;stroke:#0AAFF1;stroke-miterlimit:10;}
	.st56{fill:none;stroke:#FFFFFF;stroke-width:2;stroke-miterlimit:10;}
	.st57{fill:#0AAFF1;stroke:#0AAFF1;stroke-width:3;stroke-miterlimit:10;}
	.st58{fill:none;stroke:#0AAFF1;stroke-width:4;stroke-miterlimit:10;}
	.st59{fill:none;stroke:#0AAFF1;stroke-width:2.25;stroke-miterlimit:10;}
	.st60{fill:#1FB900;}
	.st61{fill:none;stroke:#0AAFF1;stroke-width:13;stroke-linecap:round;stroke-linejoin:round;stroke-miterlimit:10;}
	.st62{fill:none;stroke:#FFFFFF;stroke-width:1.5;stroke-miterlimit:10;}
	.st63{fill:none;stroke:#FFFFFF;stroke-width:1.5;stroke-linecap:round;stroke-linejoin:round;stroke-miterlimit:10;}
	.st64{fill:#F7FAF9;}
	.st65{fill:none;stroke:#FFFFFF;stroke-width:0.5;stroke-miterlimit:10;}
	.st66{fill:#FFFFFF;stroke:#0AAFF1;stroke-width:3;stroke-miterlimit:10;}
	.st67{fill:#606060;stroke:#0AAFF1;stroke-width:15;stroke-miterlimit:10;}
	.st68{fill:none;stroke:#0AAFF1;stroke-width:8;stroke-miterlimit:10;}
	.st69{fill:#FFFFFF;stroke:#0AAFF1;stroke-width:0.75;stroke-linecap:round;stroke-linejoin:round;stroke-miterlimit:10;}
	.st70{fill:none;stroke:#0AAFF1;stroke-width:10;stroke-linecap:round;stroke-linejoin:round;stroke-miterlimit:10;}
	.st71{fill:none;stroke:#E70027;stroke-width:10;stroke-linecap:round;stroke-linejoin:round;stroke-miterlimit:10;}
	.st72{opacity:0.5;fill:none;stroke:#E70027;stroke-width:10;stroke-miterlimit:10;}
	.st73{opacity:0.5;fill:#E70027;}
	.st74{fill:none;stroke:#FFFFFC;stroke-width:10;stroke-linecap:round;stroke-linejoin:round;stroke-miterlimit:10;}
	.st75{fill:none;stroke:#606060;stroke-width:15;stroke-linecap:round;stroke-linejoin:round;stroke-miterlimit:10;}
	.st76{fill:#606060;stroke:#FFFFFF;stroke-width:7;stroke-miterlimit:10;}
	.st77{fill:#0AAFF1;stroke:#0AAFF1;stroke-miterlimit:10;}
	.st78{fill:none;stroke:#606060;stroke-width:10;stroke-linecap:round;stroke-linejoin:round;stroke-miterlimit:10;}
	.st79{fill:none;stroke:#FFFFFF;stroke-width:7;stroke-miterlimit:10;stroke-dasharray:5.8286,5.8286;}
	.st80{fill:none;stroke:#000000;stroke-width:19;stroke-miterlimit:10;}
	.st81{fill:#0AAFF1;stroke:#FFFFFF;stroke-width:2;stroke-miterlimit:10;}
	.st82{fill:#45B8FF;}
	.st83{opacity:0.5;fill:none;stroke:#45B8FF;stroke-width:1.75;stroke-miterlimit:10;}
	.st84{fill:none;stroke:#000000;stroke-width:1.75;stroke-miterlimit:10;}
	.st85{fill:none;stroke:#000000;stroke-width:1.5;stroke-miterlimit:10;}
	.st86{fill:none;stroke:#0AAFF1;stroke-width:1.75;stroke-miterlimit:10;}
	.st87{fill:none;stroke:#0AAFF1;stroke-width:1.75;stroke-linecap:round;stroke-linejoin:round;stroke-miterlimit:10;}
	.st88{fill:#FFFFFC;stroke:#FFFFFC;stroke-width:3;stroke-miterlimit:10;}
	.st89{fill:none;stroke:#000000;stroke-width:2;stroke-miterlimit:10;}
	.st90{fill:none;stroke:#FFFFFF;stroke-width:2;stroke-linecap:round;stroke-linejoin:round;stroke-miterlimit:10;}
	.st91{fill:#00A3C8;stroke:#606060;stroke-width:5;stroke-miterlimit:10;}
	.st92{fill:#0084F6;}
	.st93{fill:#CDCDC9;}
	.st94{fill-rule:evenodd;clip-rule:evenodd;fill:#FFFFFF;}
	.st95{fill:none;stroke:#0AAFF1;stroke-width:5;stroke-miterlimit:10;}
	.st96{fill:none;stroke:#0AAFF1;stroke-width:5;stroke-linecap:round;stroke-linejoin:round;stroke-miterlimit:10;}
	.st97{fill:#FFFFFF;stroke:#0AAFF1;stroke-width:5;stroke-linecap:round;stroke-linejoin:round;stroke-miterlimit:10;}
	.st98{fill:none;stroke:#0AAFF1;stroke-width:3;stroke-miterlimit:10;}
	.st99{fill:#0AAFF1;stroke:#0AAFF1;stroke-width:6;stroke-linecap:round;stroke-linejoin:round;stroke-miterlimit:10;}
	.st100{fill:#00D06F;}
	.st101{fill:#0AAFF1;stroke:#0AAFF1;stroke-width:6;stroke-miterlimit:10;}
	.st102{fill:none;stroke:#0AAFF1;stroke-width:2.5;stroke-linecap:round;stroke-linejoin:round;stroke-miterlimit:10;}
	.st103{fill:#FFFF00;stroke:#000000;stroke-width:3;stroke-miterlimit:10;}
	.st104{fill:#53FC00;}
	.st105{fill:#80A51B;}
	.st106{fill:none;stroke:#80A51B;stroke-width:0.999;}
	.st107{fill:none;stroke:#000000;stroke-width:0.75;stroke-miterlimit:10;}
	.st108{opacity:0.4;}
	.st109{fill:#0078D4;}
	.st110{fill:#45D7FA;}
	.st111{fill:#189AE1;}
	.st112{fill:none;stroke:#606060;stroke-width:13;stroke-linecap:round;stroke-linejoin:round;stroke-miterlimit:10;}
	.st113{fill:none;stroke:#FFFFFF;stroke-width:7;stroke-linecap:round;stroke-linejoin:round;stroke-miterlimit:10;}
	.st114{fill:#FFFFFF;stroke:#FFFFFF;stroke-miterlimit:10;}
	.st115{fill:#DADADA;}
	.st116{fill:none;stroke:#20FF77;stroke-miterlimit:10;}
</style>
<g>
	<path class="st94" d="M45.03,4.68c-1.08,0-2.38,0-3.85,0V1.66c0-0.91-0.75-1.66-1.66-1.66c-0.91,0-1.66,0.75-1.66,1.66v3.02
		c-3.37,0-7.26,0-11.21,0V1.66C26.66,0.75,25.91,0,25,0s-1.66,0.75-1.66,1.66v3.02c-3.95,0-7.84,0-11.21,0V1.66
		c0-0.91-0.75-1.66-1.66-1.66C9.57,0,8.82,0.75,8.82,1.66v3.02c-1.47,0-2.77,0-3.85,0C2.24,4.68,0,6.92,0,9.65v34.91
		c0,2.73,2.24,4.97,4.97,4.97h40.06c2.73,0,4.97-2.24,4.97-4.97V9.65C50,6.92,47.76,4.68,45.03,4.68z M37.87,7.77v2.41
		c0,0.91,0.75,1.66,1.66,1.66c0.91,0,1.66-0.75,1.66-1.66V7.77c0.88,0.55,1.47,1.53,1.47,2.64c0,1.73-1.4,3.12-3.12,3.12
		s-3.12-1.4-3.12-3.12C36.4,9.3,36.99,8.32,37.87,7.77z M23.34,7.77v2.41c0,0.91,0.75,1.66,1.66,1.66s1.66-0.75,1.66-1.66V7.77
		c0.88,0.55,1.47,1.53,1.47,2.64c0,1.73-1.4,3.12-3.12,3.12s-3.12-1.4-3.12-3.12C21.88,9.3,22.46,8.32,23.34,7.77z M8.82,7.77v2.41
		c0,0.91,0.75,1.66,1.66,1.66c0.91,0,1.66-0.75,1.66-1.66V7.77c0.88,0.55,1.47,1.53,1.47,2.64c0,1.73-1.4,3.12-3.12,3.12
		s-3.12-1.4-3.12-3.12C7.35,9.3,7.94,8.32,8.82,7.77z M47.82,44.56c0,1.53-1.25,2.79-2.79,2.79H4.97c-1.53,0-2.79-1.25-2.79-2.79
		V17.19h45.63V44.56z"/>
	<path class="st94" d="M7.69,44.24h5.67c0.18,0,0.32-0.14,0.32-0.32v-5.67c0-0.18-0.14-0.32-0.32-0.32H7.69
		c-0.18,0-0.32,0.14-0.32,0.32v5.67C7.37,44.1,7.52,44.24,7.69,44.24z"/>
	<path class="st94" d="M7.69,35.42h5.67c0.18,0,0.32-0.14,0.32-0.32v-5.67c0-0.18-0.14-0.32-0.32-0.32H7.69
		c-0.18,0-0.32,0.14-0.32,0.32v5.67C7.37,35.28,7.52,35.42,7.69,35.42z"/>
	<path class="st94" d="M17.34,44.24h5.67c0.18,0,0.32-0.14,0.32-0.32v-5.67c0-0.18-0.14-0.32-0.32-0.32h-5.67
		c-0.18,0-0.32,0.14-0.32,0.32v5.67C17.02,44.1,17.17,44.24,17.34,44.24z"/>
	<path class="st94" d="M26.99,44.24h5.67c0.18,0,0.32-0.14,0.32-0.32v-5.67c0-0.18-0.14-0.32-0.32-0.32h-5.67
		c-0.18,0-0.32,0.14-0.32,0.32v5.67C26.67,44.1,26.82,44.24,26.99,44.24z"/>
	<path class="st94" d="M36.64,44.24h5.67c0.18,0,0.32-0.14,0.32-0.32v-5.67c0-0.18-0.14-0.32-0.32-0.32h-5.67
		c-0.18,0-0.32,0.14-0.32,0.32v5.67C36.32,44.1,36.47,44.24,36.64,44.24z"/>
	<path class="st94" d="M17.34,35.42h5.67c0.18,0,0.32-0.14,0.32-0.32v-5.67c0-0.18-0.14-0.32-0.32-0.32h-5.67
		c-0.18,0-0.32,0.14-0.32,0.32v5.67C17.02,35.28,17.17,35.42,17.34,35.42z"/>
	<path class="st94" d="M26.99,35.42h5.67c0.18,0,0.32-0.14,0.32-0.32v-5.67c0-0.18-0.14-0.32-0.32-0.32h-5.67
		c-0.18,0-0.32,0.14-0.32,0.32v5.67C26.67,35.28,26.82,35.42,26.99,35.42z"/>
	<path class="st94" d="M36.64,35.42h5.67c0.18,0,0.32-0.14,0.32-0.32v-5.67c0-0.18-0.14-0.32-0.32-0.32h-5.67
		c-0.18,0-0.32,0.14-0.32,0.32v5.67C36.32,35.28,36.47,35.42,36.64,35.42z"/>
	<path class="st94" d="M17.34,26.6h5.67c0.18,0,0.32-0.14,0.32-0.32v-5.67c0-0.18-0.14-0.32-0.32-0.32h-5.67
		c-0.18,0-0.32,0.14-0.32,0.32v5.67C17.02,26.45,17.17,26.6,17.34,26.6z"/>
	<path class="st94" d="M26.99,26.6h5.67c0.18,0,0.32-0.14,0.32-0.32v-5.67c0-0.18-0.14-0.32-0.32-0.32h-5.67
		c-0.18,0-0.32,0.14-0.32,0.32v5.67C26.67,26.45,26.82,26.6,26.99,26.6z"/>
	<path class="st94" d="M36.64,26.6h5.67c0.18,0,0.32-0.14,0.32-0.32v-5.67c0-0.18-0.14-0.32-0.32-0.32h-5.67
		c-0.18,0-0.32,0.14-0.32,0.32v5.67C36.32,26.45,36.47,26.6,36.64,26.6z"/>
</g>
</svg>
