<?xml version="1.0" encoding="utf-8"?>
<!-- Generator: Adobe Illustrator 24.0.2, SVG Export Plug-In . SVG Version: 6.00 Build 0)  -->
<svg version="1.1" id="Capa_1" xmlns="http://www.w3.org/2000/svg" xmlns:xlink="http://www.w3.org/1999/xlink" x="0px" y="0px"
	 viewBox="0 0 400 90" style="enable-background:new 0 0 400 90;" xml:space="preserve">
<style type="text/css">
	.st0{fill:#D0D0D0;}
	.st1{fill:#AFCA0A;}
</style>
<g>
	<path class="st1" d="M232.19,30.06v-8.51h-31.38v8.51h11.33v25.11c0,6.55,5.33,11.88,11.88,11.88h3.04v-8.51h-3.04
		c-1.86,0-3.37-1.51-3.37-3.37V30.06H232.19z"/>
	<g>
		<path class="st1" d="M375.54,21.59c1.1,0,2.12,0.18,3.06,0.54c0.94,0.36,1.75,0.87,2.44,1.54c0.69,0.67,1.23,1.48,1.62,2.43
			c0.39,0.95,0.58,2.02,0.58,3.2c0,1.18-0.19,2.25-0.58,3.2c-0.39,0.95-0.93,1.76-1.62,2.43c-0.69,0.67-1.5,1.18-2.44,1.54
			c-0.94,0.36-1.96,0.54-3.06,0.54c-1.1,0-2.12-0.18-3.07-0.54c-0.94-0.36-1.76-0.87-2.45-1.54c-0.69-0.67-1.23-1.48-1.62-2.43
			c-0.39-0.95-0.59-2.02-0.59-3.2c0-1.18,0.2-2.25,0.59-3.2c0.39-0.95,0.93-1.76,1.62-2.43c0.69-0.67,1.5-1.18,2.45-1.54
			C373.42,21.77,374.44,21.59,375.54,21.59z M375.54,35.95c0.88,0,1.71-0.13,2.49-0.4c0.78-0.27,1.46-0.68,2.03-1.23
			c0.58-0.55,1.03-1.24,1.37-2.08c0.34-0.83,0.51-1.82,0.51-2.95c0-1.13-0.17-2.11-0.51-2.95c-0.34-0.83-0.79-1.53-1.37-2.08
			c-0.58-0.55-1.25-0.96-2.03-1.23c-0.78-0.27-1.61-0.4-2.49-0.4c-0.89,0-1.72,0.13-2.5,0.4c-0.78,0.27-1.46,0.68-2.03,1.23
			c-0.58,0.55-1.03,1.24-1.37,2.08c-0.33,0.83-0.5,1.82-0.5,2.95c0,1.13,0.17,2.11,0.5,2.95c0.33,0.83,0.79,1.53,1.37,2.08
			c0.58,0.55,1.25,0.96,2.03,1.23C373.82,35.82,374.65,35.95,375.54,35.95z M372.46,25.18h3.28c0.44,0,0.86,0.05,1.24,0.15
			c0.39,0.1,0.73,0.25,1.01,0.46c0.29,0.21,0.51,0.47,0.68,0.79c0.17,0.32,0.25,0.7,0.25,1.14c0,0.25-0.05,0.48-0.14,0.69
			s-0.23,0.41-0.39,0.58c-0.17,0.17-0.36,0.32-0.58,0.46c-0.22,0.13-0.46,0.24-0.71,0.33l1.97,3.36h-1.37l-1.82-3.13h-2.08v3.13
			h-1.34V25.18z M373.8,26.26v2.67h2.42c0.15-0.02,0.3-0.06,0.46-0.11c0.16-0.05,0.31-0.12,0.45-0.21c0.14-0.09,0.25-0.21,0.34-0.35
			c0.09-0.14,0.13-0.32,0.13-0.53c0-0.53-0.18-0.9-0.53-1.12c-0.35-0.22-0.86-0.33-1.53-0.33H373.8z"/>
	</g>
	<path class="st1" d="M304.66,67.05h-8.51v-19.7c0-3.55-2.89-6.44-6.44-6.44c-3.55,0-6.44,2.89-6.44,6.44v19.7h-8.51v-19.7
		c0-8.25,6.71-14.95,14.95-14.95c8.25,0,14.96,6.71,14.96,14.95V67.05z"/>
	<path class="st1" d="M267.89,51.77h-27.17c0.39,2.4,1.44,4.3,3.14,5.72c1.7,1.41,3.88,2.12,6.52,2.12c3.16,0,5.88-1.1,8.15-3.32
		l7.13,3.35c-1.78,2.52-3.9,4.38-6.38,5.59c-2.48,1.21-5.42,1.81-8.83,1.81c-5.29,0-9.59-1.67-12.92-5
		c-3.33-3.33-4.99-7.51-4.99-12.53c0-5.14,1.66-9.41,4.97-12.81c3.31-3.4,7.47-5.1,12.47-5.1c5.31,0,9.63,1.7,12.95,5.1
		c3.32,3.4,4.99,7.89,4.99,13.46L267.89,51.77z M259.43,45.11c-0.56-1.88-1.66-3.41-3.31-4.59c-1.65-1.18-3.55-1.77-5.73-1.77
		c-2.36,0-4.43,0.66-6.21,1.98c-1.12,0.83-2.15,2.28-3.1,4.37H259.43z"/>
	<path class="st1" d="M322.81,33.79v-12.2h-8.51v12.2h-6.58l0,0v6.66v0h6.58v14.71c0,6.55,5.33,11.88,11.88,11.88h3.21v-8.51h-3.21
		c-1.86,0-3.37-1.51-3.37-3.37V40.46h6.58v0v-6.66l0,0H322.81z"/>
	<path class="st1" d="M350.1,31.57c-9.78,0-17.74,7.96-17.74,17.74c0,9.78,7.96,17.74,17.74,17.74c9.78,0,17.74-7.96,17.74-17.74
		C367.84,39.52,359.88,31.57,350.1,31.57z M349.68,55.01c-0.53-0.46-1.19-0.73-1.89-0.79l-7.92-0.62l15.76-15.54l0.08,22.13
		L349.68,55.01z"/>
</g>
<g>
	<path class="st0" d="M43.52,60.61c-1.5,0.37-3.15,0.55-4.96,0.55c-1.92,0-3.67-0.32-5.24-0.96s-2.92-1.61-4.02-2.93
		c-1.11-1.32-1.96-3-2.56-5.04c-0.6-2.04-0.9-4.47-0.9-7.29s0.3-5.23,0.89-7.26c0.59-2.02,1.43-3.69,2.53-4.99
		c1.09-1.31,2.42-2.27,3.99-2.9c1.56-0.63,3.32-0.94,5.26-0.94c1.47,0,2.87,0.11,4.17,0.34c1.31,0.22,2.49,0.53,3.54,0.9l1.71-6.77
		c-1.14-0.47-2.5-0.88-4.07-1.24c-1.58-0.36-3.5-0.54-5.78-0.54c-3.46,0-6.59,0.55-9.37,1.66c-2.78,1.11-5.14,2.68-7.09,4.73
		s-3.44,4.51-4.49,7.39c-1.05,2.88-1.58,6.09-1.58,9.62c0,3.53,0.51,6.74,1.54,9.63c1.03,2.89,2.49,5.37,4.39,7.42
		c1.9,2.06,4.19,3.65,6.89,4.78c2.69,1.13,5.71,1.69,9.07,1.69c2.7,0,4.99-0.22,6.87-0.65s3.46-0.98,4.76-1.63l-1.58-6.8
		C46.34,59.84,45.02,60.24,43.52,60.61z"/>
	<polygon class="st0" points="78.85,43.7 66.78,22.22 55.45,22.22 55.45,67.8 62.5,67.8 65.44,67.8 65.44,50.41 65.44,36.3 
		75.83,55.13 81.83,55.13 92.12,36.53 92.12,50.74 92.12,67.8 99.33,67.8 102.14,67.8 102.14,22.22 90.91,22.22 	"/>
	<path class="st0" d="M141.92,46.08c0.85-0.85,1.59-1.78,2.23-2.8c0.64-1.02,1.14-2.11,1.52-3.27c0.38-1.16,0.57-2.39,0.57-3.69
		c0-2.14-0.39-4.09-1.16-5.83c-0.77-1.74-1.9-3.23-3.4-4.46c-1.5-1.23-3.35-2.17-5.55-2.83c-2.2-0.66-4.74-0.99-7.62-0.99h-16.42
		V67.8h10.02V50.57h7.78l8.38,17.23h10.52l-9.55-19.44C140.18,47.69,141.07,46.93,141.92,46.08z M135.77,38.71
		c-0.15,0.69-0.35,1.32-0.6,1.88c-0.26,0.56-0.54,1.06-0.85,1.49c-0.31,0.44-0.64,0.83-0.97,1.19h-11.23V29.53h6.13
		c2.61,0,4.56,0.53,5.83,1.59c1.27,1.06,1.91,2.8,1.91,5.21C135.99,37.23,135.91,38.02,135.77,38.71z"/>
	<path class="st0" d="M189.59,30.83c-0.79-1.79-1.95-3.32-3.47-4.59c-1.52-1.27-3.4-2.26-5.65-2.97c-2.25-0.7-4.82-1.06-7.72-1.06
		h-16.86V67.8h9.99V51.48h6.87c2.9,0,5.48-0.35,7.72-1.06c2.25-0.7,4.13-1.7,5.65-3c1.52-1.3,2.67-2.84,3.47-4.64
		c0.79-1.8,1.19-3.79,1.19-5.98C190.78,34.61,190.38,32.62,189.59,30.83z M172.01,44.17h-6.13V29.53h6.13c2.86,0,5,0.59,6.42,1.76
		c1.42,1.17,2.13,3.01,2.13,5.51C180.56,41.72,177.71,44.17,172.01,44.17z"/>
</g>
</svg>
